<svg data-name="Capa 1" viewBox="0 0 20 19.84" xmlns="http://www.w3.org/2000/svg"><path d="M13.87 5.43H6.13a1.73 1.73 0 0 0-1.72 1.73v5.53a1.72 1.72 0 0 0 1.72 1.72h7.74a1.72 1.72 0 0 0 1.72-1.72V7.16a1.73 1.73 0 0 0-1.72-1.73Zm-7.74.75h7.74a1 1 0 0 1 .9.63 8.74 8.74 0 0 0-1 .78c-1 .89-2.64 2.25-3.78 2.25S7.27 8.48 6.22 7.59a8.74 8.74 0 0 0-1-.78 1 1 0 0 1 .91-.63Zm8.71 6.51a1 1 0 0 1-1 1H6.13a1 1 0 0 1-1-1v-5c.18.14.39.32.57.48 1.14 1 2.86 2.43 4.27 2.43s3.13-1.46 4.27-2.43c.18-.16.39-.34.57-.48Z" fill="#e8e8e8" class="fill-000000"></path></svg>