<?xml version="1.0" standalone="no"?>
<!DOCTYPE svg PUBLIC "-//W3C//DTD SVG 20010904//EN"
 "http://www.w3.org/TR/2001/REC-SVG-20010904/DTD/svg10.dtd">
<svg version="1.0" xmlns="http://www.w3.org/2000/svg"
 width="300.000000pt" height="169.000000pt" viewBox="0 0 300.000000 169.000000"
 preserveAspectRatio="xMidYMid meet">
<metadata>
Created by potrace 1.10, written by Peter Selinger 2001-2011
</metadata>
<g transform="translate(0.000000,169.000000) scale(0.100000,-0.100000)"
fill="#000000" stroke="none">
<path d="M1433 1684 c3 -3 -15 -21 -41 -38 -48 -33 -91 -100 -92 -144 0 -13
-17 -41 -37 -63 -37 -40 -39 -41 -95 -37 -97 7 -66 -24 35 -36 51 -5 57 -4 57
12 0 17 48 72 63 72 3 0 -3 -21 -14 -47 -11 -25 -18 -51 -15 -57 2 -6 5 -3 5
6 1 9 8 21 16 26 11 6 17 28 20 78 2 38 6 81 10 95 7 30 59 75 123 108 23 12
42 24 42 26 0 3 -19 5 -42 5 -23 0 -39 -3 -35 -6z"/>
<path d="M1473 1634 c-3 -9 3 -24 14 -35 17 -17 23 -18 49 -8 16 6 65 12 109
11 125 0 227 -45 315 -137 34 -35 34 -36 9 -30 -14 3 -32 7 -40 9 -8 1 -33 8
-57 15 -35 10 -46 9 -63 -2 -18 -13 -15 -15 43 -19 35 -2 78 -11 96 -20 18
-10 39 -15 46 -12 17 7 49 -31 44 -53 -3 -14 -7 -12 -19 12 -8 16 -21 30 -29
31 -8 0 -26 3 -40 6 -52 14 -115 19 -100 8 8 -5 29 -10 45 -10 17 0 47 -11 68
-25 20 -14 37 -22 37 -18 0 4 25 -30 55 -76 54 -82 85 -159 85 -212 0 -15 5
-31 10 -34 24 -15 0 136 -30 189 -9 17 -27 47 -39 67 -12 20 -21 41 -20 45 5
29 -5 56 -33 88 -89 101 -134 140 -196 169 -64 31 -73 32 -190 32 -91 0 -122
3 -122 13 0 18 -40 15 -47 -4z"/>
<path d="M1396 1590 c-20 -22 -36 -43 -37 -48 -6 -56 -6 -71 2 -67 5 4 9 16 9
27 0 12 3 19 6 16 3 -4 20 3 39 15 18 12 41 27 51 34 16 10 17 13 4 22 -10 7
-19 6 -27 -1 -9 -7 -13 -7 -13 0 0 6 5 14 10 17 6 3 10 10 10 16 0 19 -19 8
-54 -31z"/>
<path d="M1489 1474 c-11 -14 -11 -16 0 -10 10 7 12 2 6 -25 -4 -19 -14 -43
-21 -54 -17 -24 -18 -57 -1 -74 10 -10 9 -11 -5 -6 -10 4 -18 10 -18 14 0 4
-7 8 -15 8 -13 0 -13 -2 0 -17 17 -19 113 -36 126 -23 9 9 5 25 -34 136 -21
62 -25 67 -38 51z m46 -124 c20 -38 19 -40 -10 -40 -32 0 -58 46 -34 61 22 14
27 11 44 -21z"/>
<path d="M1620 1474 c-31 -11 -32 -13 -10 -14 l25 -1 -33 -29 c-38 -36 -31
-39 15 -7 18 12 31 28 28 35 -3 7 4 12 18 13 12 0 31 4 42 9 34 15 -45 9 -85
-6z"/>
<path d="M1690 1437 c-19 -7 -44 -19 -55 -26 -18 -11 -18 -11 5 -5 14 4 44 13
67 19 23 6 45 14 49 18 11 11 -27 7 -66 -6z"/>
<path d="M1080 1378 c0 -2 4 -29 10 -62 7 -47 6 -63 -5 -79 -8 -12 -15 -27
-15 -34 0 -26 35 -93 52 -99 9 -3 29 -19 43 -36 20 -24 26 -39 22 -62 -3 -17
2 -46 9 -65 18 -43 18 -41 -10 -41 -17 0 -27 9 -36 29 -16 40 -98 107 -146
120 -50 13 -108 -1 -129 -33 -21 -31 -10 -107 19 -134 11 -11 38 -36 59 -57
21 -21 41 -35 44 -31 3 3 13 -9 22 -27 10 -19 25 -33 39 -35 12 -2 22 -10 22
-17 0 -26 -61 4 -74 37 -13 30 -26 28 -26 -4 0 -30 29 -52 72 -54 21 -1 46 -8
56 -17 9 -8 26 -17 37 -21 29 -9 45 -51 38 -101 -5 -39 -3 -45 26 -66 34 -25
56 -78 52 -125 -2 -26 4 -37 33 -59 43 -33 44 -41 9 -50 -15 -3 -40 -20 -56
-36 -30 -32 -57 -32 -57 -1 0 18 -18 42 -32 42 -4 0 -8 -4 -8 -10 0 -5 8 -10
18 -10 13 0 14 -2 3 -9 -11 -7 -11 -13 3 -32 11 -17 27 -24 54 -25 20 -1 47
-5 60 -9 13 -4 22 -3 22 3 0 6 -14 14 -32 17 -30 7 -31 8 -13 21 27 20 78 17
108 -6 30 -24 31 -24 51 -4 15 14 16 14 16 0 0 -9 -7 -16 -15 -16 -18 0 -19
-12 -3 -28 8 -8 18 -6 41 10 21 15 32 18 35 10 2 -7 8 -10 13 -6 5 3 14 -7 21
-21 11 -24 13 -25 19 -8 4 10 2 24 -4 31 -7 9 -7 16 0 23 8 8 11 6 10 -7 -2
-20 1 -20 60 0 21 7 31 17 30 28 -2 22 -21 23 -77 3 -57 -20 -60 -19 -60 11 0
18 4 24 13 21 8 -3 14 1 14 9 0 7 -6 15 -14 18 -7 3 -13 1 -13 -4 0 -6 -4 -10
-10 -10 -5 0 -10 6 -10 14 0 12 -6 12 -29 3 -39 -15 -111 6 -119 35 -3 15 -11
19 -29 15 -29 -5 -39 13 -24 41 8 14 5 32 -10 72 -18 47 -19 60 -9 102 7 26
16 48 20 48 4 0 6 -8 3 -18 -4 -17 32 -73 45 -70 4 1 17 -3 28 -10 22 -12 34
-7 34 12 0 6 -5 4 -10 -4 -7 -12 -12 -8 -22 20 -7 19 -11 39 -10 43 1 4 -7 17
-18 29 -11 12 -20 30 -20 40 0 11 -4 16 -10 13 -5 -3 -10 4 -11 17 -1 23 -1
23 -9 -2 -6 -22 -8 -23 -15 -7 -6 14 -10 16 -16 6 -11 -18 8 -39 35 -39 17 0
18 -2 6 -10 -26 -17 -85 -12 -104 9 -10 11 -13 22 -8 25 6 3 8 16 4 28 -4 17
-2 20 11 15 10 -4 17 -3 17 2 0 12 -74 41 -104 41 -30 0 -48 21 -36 40 8 12
10 12 10 -4 0 -15 6 -17 28 -13 39 7 110 36 91 37 -9 0 -22 7 -29 15 -11 14
-14 13 -25 -2 -12 -16 -17 -16 -89 1 -77 18 -77 18 -71 47 4 18 3 29 -4 29 -6
0 -11 -8 -11 -17 0 -13 -8 -9 -30 17 -17 19 -27 27 -24 18 8 -22 0 -23 -20 -2
-10 10 -16 33 -16 64 0 52 7 64 30 50 9 -5 18 -3 25 6 13 18 45 9 45 -13 0
-12 2 -12 16 1 21 21 22 21 38 -18 12 -29 19 -35 43 -33 22 2 28 -2 26 -17 -1
-11 7 -31 18 -44 10 -14 19 -31 19 -38 0 -18 8 -18 26 1 21 21 35 19 41 -5 3
-11 8 -20 12 -21 44 -5 76 -28 87 -61 3 -10 11 -17 17 -15 7 2 20 0 31 -5 13
-7 16 -7 12 1 -19 29 50 81 114 86 17 1 37 11 45 21 11 15 14 16 15 4 1 -21
74 -80 99 -80 12 0 21 6 21 14 0 19 39 46 66 46 22 0 40 25 24 35 -4 3 -20 1
-34 -5 -14 -5 -26 -6 -26 -2 0 4 14 13 30 19 17 6 30 17 30 23 0 12 -15 10
-54 -6 -29 -11 -10 13 22 30 42 21 72 28 72 17 0 -5 -8 -11 -17 -13 -14 -2 -9
-9 20 -27 20 -12 44 -35 52 -49 8 -15 14 -20 14 -12 0 8 -13 31 -29 50 -17 19
-30 40 -30 47 0 17 -37 35 -59 28 -11 -3 -26 1 -35 10 -9 9 -16 13 -16 8 0 -5
5 -14 11 -20 7 -7 8 -20 5 -30 -7 -17 -8 -17 -24 3 -10 11 -23 19 -30 16 -16
-5 -16 -79 1 -89 13 -9 19 -43 7 -43 -4 0 -13 7 -20 15 -9 11 -17 12 -30 5
-23 -13 -40 -13 -40 -1 0 5 13 12 29 16 23 5 27 10 23 30 -7 40 7 75 35 86 25
9 25 10 8 29 -10 11 -23 30 -29 43 -8 15 -22 23 -44 25 -28 3 -32 7 -32 31 0
16 9 40 21 55 17 21 18 26 5 26 -9 0 -15 -5 -14 -11 2 -6 -3 -14 -11 -17 -8
-3 -11 0 -7 7 4 6 3 11 -2 11 -12 0 -25 31 -17 39 3 3 10 0 14 -7 4 -7 15 -10
24 -6 23 8 11 24 -18 24 -61 0 -145 -59 -145 -101 0 -7 -12 -30 -27 -51 -33
-48 -65 -48 -107 0 -28 32 -74 62 -96 62 -5 0 -10 -9 -10 -20 0 -25 -5 -25
-40 0 -30 22 -46 66 -35 101 l7 21 22 -21 c30 -28 88 -19 107 16 11 20 11 26
-1 33 -8 5 -17 7 -21 4 -4 -2 -11 1 -15 7 -5 8 -3 9 7 4 8 -4 1 6 -16 24 -43
47 -78 65 -42 22 25 -30 31 -44 25 -55 -2 -2 6 -13 16 -25 16 -18 17 -21 3
-21 -32 0 -75 49 -88 100 -7 28 -16 50 -21 50 -4 0 -8 -1 -8 -2z m463 -225
c13 -45 1 -82 -41 -122 -41 -38 -27 -34 30 11 28 22 46 28 70 26 30 -3 33 -6
36 -41 5 -62 -36 -121 -101 -146 -30 -10 -70 -23 -90 -26 -20 -4 -35 -11 -32
-15 3 -5 -7 -10 -22 -12 -20 -2 -27 -8 -25 -20 1 -9 -3 -20 -9 -24 -9 -5 -10
-2 -6 9 4 10 1 17 -5 17 -6 0 -1 11 12 25 l23 25 -34 0 c-42 0 -113 43 -128
77 -26 56 -2 84 35 42 13 -15 15 -23 7 -26 -19 -7 63 -74 101 -83 35 -8 93 7
122 31 9 7 30 37 46 66 18 32 39 55 56 62 19 6 21 10 9 10 -30 2 -56 -18 -76
-57 -39 -76 -119 -118 -183 -96 -21 8 -20 9 12 14 29 6 32 8 15 14 -76 28 -82
33 -77 64 4 31 -15 54 -27 33 -12 -18 -41 21 -48 63 -9 55 5 49 76 -33 35 -41
91 -53 91 -20 0 11 7 22 15 25 8 4 15 13 15 21 0 8 5 11 11 7 8 -4 8 -9 0 -17
-7 -7 -7 -14 0 -24 24 -28 32 -13 26 44 -6 53 -4 60 21 86 34 36 63 32 75 -10z
m-385 -445 c20 -20 14 -30 -15 -26 -32 4 -46 38 -16 38 11 0 24 -5 31 -12z
m75 -125 c4 -3 -1 -12 -10 -18 -16 -12 -16 -14 0 -39 18 -27 11 -36 -11 -14
-17 17 -16 78 1 78 8 0 17 -3 20 -7z m222 -323 c24 0 34 -5 38 -20 9 -36 -29
-37 -110 -4 -41 17 -34 39 9 30 17 -3 45 -6 63 -6z"/>
<path d="M1590 1322 c0 -24 4 -41 9 -38 5 4 11 1 13 -6 3 -7 7 -8 10 -2 4 5
-2 27 -12 49 l-19 40 -1 -43z"/>
<path d="M1804 1275 c22 -8 55 -27 74 -41 31 -24 33 -24 23 -5 -14 25 -53 46
-101 55 l-35 6 39 -15z"/>
<path d="M1734 1245 c15 -14 31 -23 36 -20 25 15 154 -76 206 -146 25 -34 32
-55 14 -44 -5 3 -10 1 -10 -5 0 -6 10 -14 22 -19 21 -8 21 -8 -3 -15 -23 -7
-22 -8 13 -21 55 -20 104 -61 140 -116 17 -27 35 -49 40 -49 24 0 -5 70 -49
115 -10 11 -25 34 -33 52 -14 30 -45 53 -75 53 -7 0 -23 14 -35 30 -12 17 -19
30 -15 30 8 0 -26 50 -51 76 -28 27 -187 104 -216 104 -6 0 1 -11 16 -25z
m337 -255 c23 -18 23 -19 4 -20 -11 0 -26 9 -33 20 -16 26 -1 26 29 0z"/>
<path d="M1672 1212 c-9 -6 -5 -15 15 -33 24 -21 26 -21 9 -2 -19 22 -18 23 5
32 21 9 22 10 4 10 -11 0 -26 -3 -33 -7z"/>
<path d="M1795 1190 c17 -17 39 -36 50 -42 14 -7 11 -1 -10 22 -16 17 -39 36
-50 42 -14 7 -11 1 10 -22z"/>
<path d="M1120 1189 c0 -28 18 -59 34 -59 7 0 18 11 24 25 10 22 9 26 -6 31
-9 3 -25 10 -34 15 -15 7 -18 5 -18 -12z"/>
<path d="M1754 1188 c16 -25 16 -27 -1 -31 -11 -4 -9 -5 7 -4 32 3 32 25 1 46
l-25 16 18 -27z"/>
<path d="M1790 1139 c0 -7 -10 -9 -25 -7 -20 4 -23 3 -14 -8 7 -9 17 -11 28
-5 9 5 29 7 44 5 24 -2 26 0 16 12 -14 17 -49 19 -49 3z"/>
<path d="M1698 1094 c23 -28 39 -54 35 -58 -3 -3 -1 -6 5 -6 24 0 11 27 -35
70 l-47 45 42 -51z"/>
<path d="M1640 1115 c0 -30 36 -78 60 -80 19 -2 18 1 -8 29 -16 17 -34 40 -40
51 -11 20 -11 20 -12 0z"/>
<path d="M1924 1044 c6 -19 1 -23 -40 -33 -93 -24 -85 -59 13 -57 30 1 52 5
50 11 -1 6 -28 9 -62 8 -45 -2 -56 0 -43 8 15 8 44 13 126 18 7 1 11 5 7 11
-3 5 -13 6 -22 3 -12 -5 -15 -2 -10 10 3 8 -1 21 -10 29 -14 11 -15 10 -9 -8z"/>
<path d="M984 944 c-3 -12 -1 -31 5 -41 10 -17 10 -17 11 3 0 12 10 28 22 36
l22 15 -27 5 c-22 4 -28 1 -33 -18z"/>
<path d="M1982 908 l3 -63 33 -3 c18 -2 32 -9 32 -16 0 -15 25 -25 83 -36 30
-5 37 -4 35 9 -2 8 -17 20 -35 28 -28 11 -32 11 -27 -2 9 -23 -1 -18 -35 16
-17 17 -38 29 -45 26 -8 -3 -16 2 -19 14 -8 30 12 33 41 6 26 -25 81 -52 89
-44 9 10 -86 98 -120 112 l-38 16 3 -63z"/>
<path d="M1053 910 c-16 -6 -23 -18 -23 -35 0 -15 4 -24 10 -20 6 3 10 14 10
24 0 9 12 22 28 28 15 6 20 11 12 11 -8 1 -25 -3 -37 -8z"/>
<path d="M1781 896 c-11 -13 -11 -19 -1 -31 13 -16 40 -21 40 -7 -1 4 -6 17
-14 30 -11 21 -14 22 -25 8z"/>
<path d="M1703 813 c-31 -21 -29 -35 10 -56 34 -19 43 -51 18 -66 -9 -6 -9
-10 1 -19 35 -28 51 50 18 88 -20 23 -28 66 -10 55 6 -3 10 -1 10 4 0 15 -21
13 -47 -6z"/>
<path d="M1964 807 c-7 -24 3 -34 18 -19 7 7 20 12 29 12 34 0 29 18 -6 22
-28 3 -36 0 -41 -15z"/>
<path d="M1494 773 c-4 -16 -8 -33 -9 -40 0 -7 -9 -19 -20 -27 -25 -18 -18
-27 13 -15 19 7 27 25 23 51 0 4 8 12 19 18 11 6 20 15 20 21 0 6 -4 7 -10 4
-5 -3 -10 -1 -10 4 0 22 -18 10 -26 -16z"/>
<path d="M1563 762 c-6 -4 -14 -29 -17 -57 -5 -44 -4 -47 6 -22 12 28 27 36
30 15 4 -36 2 -44 -9 -56 -7 -7 -13 -22 -13 -33 0 -12 -7 -19 -19 -19 -15 0
-19 6 -18 26 2 22 -3 28 -27 31 -16 2 -40 0 -55 -5 -39 -13 -63 -4 -59 21 2
17 9 22 33 20 17 0 24 1 18 4 -7 2 -13 14 -13 26 0 20 -2 20 -29 -8 -17 -17
-33 -42 -36 -57 -7 -25 -5 -28 20 -28 24 0 26 -2 14 -16 -12 -15 -11 -16 9
-10 18 6 21 4 15 -11 -6 -16 -5 -16 10 -4 15 12 17 11 17 -10 0 -19 2 -21 10
-9 5 8 10 27 10 43 0 15 5 27 10 27 6 0 10 -6 10 -14 0 -21 40 -46 73 -46 15
0 26 4 23 9 -3 5 4 9 17 8 12 0 29 3 37 6 8 4 22 3 30 -2 12 -8 12 -13 0 -35
-16 -30 -15 -31 26 -39 20 -4 38 -1 50 8 18 14 18 14 -3 15 -12 0 -27 9 -33
19 -8 16 -6 21 10 26 23 7 56 52 46 62 -3 4 -19 -6 -34 -20 -16 -15 -35 -27
-43 -27 -8 1 -2 11 16 26 l30 24 -24 19 -24 18 27 7 c14 3 26 10 26 14 0 14
-49 51 -76 58 -24 6 -26 5 -20 -12 22 -54 12 -155 -14 -139 -5 3 -19 1 -30 -5
-11 -6 -20 -7 -20 -2 0 6 9 12 20 15 24 6 25 21 5 76 -13 37 -13 43 0 47 8 4
15 10 15 15 0 11 -30 12 -47 1z"/>
<path d="M1597 563 l-29 -15 23 -16 c21 -14 23 -14 41 7 10 13 15 27 12 32 -7
11 -12 10 -47 -8z"/>
<path d="M1480 560 c0 -16 56 -136 66 -142 5 -3 25 -9 44 -12 32 -6 34 -6 16
8 -18 14 -16 17 27 43 53 32 60 53 18 53 -22 0 -30 -6 -35 -22 -5 -23 -52 -52
-66 -43 -19 12 -48 83 -38 93 7 7 4 14 -11 21 -14 8 -21 8 -21 1z"/>
<path d="M1760 541 c0 -6 17 -11 39 -11 28 0 53 -10 88 -34 43 -29 55 -33 84
-26 29 6 31 8 14 15 -11 4 -45 19 -75 33 -61 28 -150 42 -150 23z"/>
<path d="M1462 513 c6 -15 18 -36 26 -45 8 -9 11 -22 7 -27 -3 -6 1 -11 10
-11 13 0 11 8 -10 49 -27 54 -53 80 -33 34z"/>
<path d="M1284 506 c-6 -17 22 -105 34 -107 48 -10 67 -2 63 24 0 4 3 7 8 7 6
0 7 -16 4 -35 -4 -23 -2 -35 6 -35 6 0 11 5 11 11 0 5 5 7 12 3 8 -5 9 0 5 17
-4 13 -7 33 -7 43 0 11 -3 16 -7 13 -3 -4 -21 4 -39 18 -18 14 -36 25 -40 25
-4 0 -16 7 -26 16 -16 16 -18 15 -24 0z"/>
<path d="M1686 475 c-26 -19 -53 -36 -60 -38 -8 -3 -8 -8 1 -17 17 -18 57 -5
73 25 8 14 24 28 37 31 13 4 23 9 23 13 0 22 68 -1 112 -37 59 -49 58 -65 -5
-81 -41 -10 -137 -87 -137 -109 0 -5 -9 -12 -20 -15 -11 -3 -18 -2 -15 3 2 4
-4 15 -14 24 -31 28 -46 73 -31 91 7 8 19 15 26 15 8 0 14 5 14 10 0 9 -67 4
-78 -5 -2 -2 -17 1 -33 5 l-29 9 17 -31 c10 -16 28 -34 41 -39 12 -5 22 -17
22 -28 0 -11 9 -29 20 -39 12 -11 18 -26 14 -35 -4 -11 6 -22 35 -36 l40 -21
15 22 c20 28 20 38 0 38 -25 0 -7 40 37 83 34 33 43 37 72 32 27 -5 40 -1 65
20 18 15 32 33 32 40 0 14 -68 74 -107 94 -12 6 -43 11 -70 11 -39 0 -57 -7
-97 -35z"/>
<path d="M1424 486 c-3 -9 -11 -13 -18 -10 -6 3 -3 -1 7 -10 22 -17 49 -10 45
12 -4 22 -27 27 -34 8z"/>
<path d="M1960 446 c0 -8 9 -18 20 -21 19 -6 15 -13 -41 -72 l-61 -66 23 -13
c13 -7 32 -13 42 -14 19 0 23 15 7 25 -19 12 -9 34 37 79 l46 46 -27 25 c-30
28 -46 32 -46 11z"/>
<path d="M1453 443 c-16 -6 -17 -39 -1 -49 7 -4 8 -3 4 4 -5 8 0 12 12 12 15
0 19 5 15 20 -5 21 -9 22 -30 13z"/>
<path d="M1307 383 c-14 -13 -6 -33 13 -33 10 0 24 -9 30 -19 6 -13 17 -17 30
-14 11 3 20 0 20 -6 0 -13 56 -15 64 -2 3 5 -1 11 -9 15 -8 3 -15 13 -15 23 0
15 -1 15 -14 -2 -13 -18 -14 -17 -37 9 -13 15 -29 24 -37 21 -8 -3 -20 -1 -27
5 -6 5 -15 7 -18 3z"/>
<path d="M1472 370 c2 -8 -2 -14 -9 -13 -7 2 -10 -4 -7 -12 4 -8 13 -15 20
-15 8 0 17 -7 21 -16 5 -13 7 -13 14 -2 7 10 9 10 9 1 0 -8 15 -13 41 -13 l41
0 -24 29 c-25 32 -41 40 -32 16 4 -8 2 -15 -4 -15 -15 0 -67 29 -64 36 2 3 1
9 -3 12 -4 4 -5 0 -3 -8z"/>
<path d="M1823 316 c-3 -4 1 -12 8 -17 11 -8 10 -12 -5 -24 -15 -11 -22 -12
-27 -3 -4 7 -5 17 -1 23 3 5 -2 4 -11 -4 -9 -7 -17 -22 -17 -33 0 -25 30 -36
45 -15 7 9 14 14 17 12 5 -5 58 58 58 68 0 8 -62 2 -67 -7z"/>
<path d="M1860 254 c0 -3 6 -12 14 -19 35 -35 -38 -129 -77 -100 -18 13 -24
30 -6 20 6 -4 9 -1 8 6 -2 8 2 24 9 37 20 34 -12 29 -37 -7 -21 -30 -27 -51
-13 -51 4 0 19 -11 34 -25 22 -21 31 -23 53 -15 14 5 30 22 36 37 6 16 20 45
31 67 17 32 18 40 7 47 -16 10 -59 12 -59 3z"/>
<path d="M1072 234 c-12 -8 -22 -21 -22 -27 -1 -7 -14 -23 -30 -37 -17 -13
-30 -27 -30 -31 0 -15 40 4 45 21 3 10 15 20 26 23 12 3 18 10 15 15 -6 10 19
36 44 45 11 4 9 6 -5 6 -11 1 -31 -6 -43 -15z"/>
<path d="M1948 233 c-9 -10 -25 -41 -37 -69 l-20 -51 25 -12 c31 -14 37 -14
28 0 -12 21 -5 91 11 109 10 11 15 24 13 30 -2 7 -10 5 -20 -7z"/>
<path d="M1095 200 c-26 -50 -17 -72 38 -85 26 -7 27 -6 18 18 -8 20 -6 27 5
31 13 5 13 10 -3 36 -22 38 -38 38 -58 0z"/>
<path d="M1037 144 c-10 -13 -24 -24 -32 -24 -8 0 -15 -4 -15 -10 0 -5 15 -10
33 -10 17 0 50 -3 72 -6 l40 -5 -35 18 c-19 10 -37 28 -40 40 -5 21 -5 21 -23
-3z"/>
<path d="M1234 126 c75 -39 96 -44 96 -23 0 15 -42 38 -75 42 -11 1 -36 6 -55
10 -27 5 -20 -1 34 -29z"/>
<path d="M1305 150 c-8 -12 -8 -12 38 -15 58 -3 68 -21 24 -40 -52 -22 -77
-19 -142 16 -31 17 -59 28 -62 25 -9 -8 8 -27 35 -38 24 -10 25 -12 7 -16 -11
-2 -24 -8 -29 -13 -16 -15 175 -10 219 6 57 21 96 18 157 -10 46 -22 67 -25
161 -25 l108 0 -13 23 c-7 12 -11 25 -10 30 2 8 -24 9 -55 1 -13 -4 -20 -10
-17 -15 3 -5 -3 -6 -12 -2 -10 4 -15 2 -11 -3 3 -5 -2 -11 -11 -12 -9 -1 -33
-4 -52 -8 -28 -4 -39 -1 -54 15 -22 25 -12 45 20 37 15 -4 26 -1 32 10 6 11
11 13 16 5 4 -6 -4 -16 -18 -23 -29 -12 -35 -38 -10 -38 9 0 33 9 53 19 20 11
45 22 56 26 15 5 16 8 6 14 -15 10 -51 3 -51 -10 0 -5 -4 -9 -10 -9 -20 0 -10
20 18 34 l27 15 -37 1 c-20 0 -40 -4 -43 -10 -3 -5 -20 -10 -36 -10 -16 0 -32
-6 -35 -14 -6 -14 -51 -13 -66 2 -5 5 -29 7 -53 4 -34 -3 -49 0 -71 17 -28 22
-69 28 -79 11z"/>
</g>
</svg>
